<?xml version="1.0" encoding="utf-8"?>
<!-- Generator: Adobe Illustrator 23.0.1, SVG Export Plug-In . SVG Version: 6.00 Build 0)  -->
<svg version="1.1" id="Layer_1" xmlns="http://www.w3.org/2000/svg" xmlns:xlink="http://www.w3.org/1999/xlink" x="0px" y="0px"
	 viewBox="0 0 2802.3 832.8" style="enable-background:new 0 0 2802.3 832.8;" xml:space="preserve">
<style type="text/css">
	.st0{fill:#FFFFFF;}
</style>
<path class="st0" d="M1354.7,73.7l-278.6,471c-28.7,48.6-46.4,97.3-50.9,143.7H916.9c6.6-59.7,31-115,77.4-196.8l196.8-329.5
	c39.8-66.3,77.4-88.5,148.2-88.5C1339.2,73.7,1354.7,73.7,1354.7,73.7z M1332.6,566.8c-19.9,19.9-61.9,48.6-92.9,48.6
	c-24.3,0-24.3-22.1-8.8-53.1c59.7-112.8,121.6-172.5,199-172.5h13.3L1332.6,566.8L1332.6,566.8z M1436.5,325.8
	c-141.5,0-227.8,81.8-307.4,263.1c-19.9,46.4-31,101.7,35.4,99.5c37.6,0,99.5-22.1,143.7-53.1c-2.2,17.7-4.4,39.8-4.4,50.9h99.5
	c4.4-39.8,17.7-86.2,50.9-145.9l123.8-207.9C1533.8,330.2,1485.2,325.8,1436.5,325.8L1436.5,325.8z M2356.4,566.8
	c-19.9,19.9-61.9,48.6-92.9,48.6c-24.3,0-24.3-22.1-8.8-53.1c59.7-112.8,121.6-172.5,199-172.5h13.3L2356.4,566.8L2356.4,566.8z
	 M2460.4,325.8c-141.5,0-227.8,81.8-307.4,263.1c-19.9,46.4-31,101.7,35.4,99.5c37.6,0,99.5-22.1,143.7-53.1
	c-4.4,15.5-6.6,35.4-4.4,48.6h99.5c4.4-39.8,17.7-86.2,50.9-145.9l123.8-207.9C2557.7,330.2,2509,325.8,2460.4,325.8L2460.4,325.8z"
	/>
<path class="st0" d="M2135.3,787.9h-33.2c-42,0-77.4-28.7-90.7-70.8l-48.6-185.7l-90.7,154.8H1766l294.1-502
	c39.8-66.3,77.4-88.5,148.2-88.5h13.3l-196.8,333.9L2172.9,328h117.2l-247.7,172.5L2135.3,787.9L2135.3,787.9z M1157.9,44.9
	c-99.5,0-152.6,26.5-249.9,97.3L576.3,381H366.3c-61.9,0-110.6,2.2-150.4,39.8l-55.3,50.9c0,0,159.2-6.6,309.6-11.1L151.8,688.4
	h137.1L613.9,454c64.1-2.2,106.1-4.4,106.1-4.4c75.2-2.2,117.2-68.6,117.2-68.6H713.4l263.1-190.2L782,507.1
	c-42,73-61.9,123.8-70.8,181.3H824c4.4-48.6,19.9-95.1,50.9-143.7l265.4-444.5c19.9-31,35.4-55.3,35.4-55.3L1157.9,44.9L1157.9,44.9
	z M1688.6,427.5c-2.2,8.8,2.2,15.5,22.1,28.7l31,19.9c33.2,22.1,46.4,55.3,42,79.6c-11.1,73-66.3,134.9-181.3,134.9
	c-50.9,0-73-2.2-134.9-11.1l46.4-75.2c42,6.6,66.3,11.1,97.3,11.1c44.2,0,61.9-19.9,64.1-35.4c2.2-8.8-2.2-19.9-24.3-35.4
	l-24.3-17.7c-39.8-28.7-48.6-50.9-44.2-81.8c8.8-66.3,84-115,192.4-115c33.2,0,70.8,2.2,108.4,6.6l-42,73
	c-26.5-2.2-68.6-4.4-97.3-2.2C1708.5,403.2,1690.8,412,1688.6,427.5L1688.6,427.5z M2593.1,580.1c31,0,57.5,26.5,57.5,57.5
	s-24.3,57.5-57.5,57.5c-31,0-55.3-26.5-55.3-57.5C2540,606.6,2564.3,580.1,2593.1,580.1z M2593.1,684c24.3,0,44.2-19.9,44.2-46.4
	c0-26.5-19.9-46.4-44.2-46.4c-24.3,0-44.2,19.9-44.2,46.4C2548.8,664.1,2570.9,684,2593.1,684z M2586.4,668.5h-11.1v-61.9h22.1
	c11.1,0,22.1,8.8,22.1,19.9c0,8.8-6.6,15.5-13.3,17.7l13.3,24.3h-13.3l-13.3-22.1h-4.4L2586.4,668.5L2586.4,668.5z M2595.3,635.3
	c6.6,0,11.1-4.4,11.1-8.8c0-6.6-4.4-8.8-11.1-8.8h-8.8v17.7H2595.3z"/>
</svg>
